<?xml version="1.0" standalone="no"?>
<!DOCTYPE svg PUBLIC "-//W3C//DTD SVG 20010904//EN"
 "http://www.w3.org/TR/2001/REC-SVG-20010904/DTD/svg10.dtd">
<svg version="1.0" xmlns="http://www.w3.org/2000/svg"
 width="500.000000pt" height="500.000000pt" viewBox="0 0 500.000000 500.000000"
 preserveAspectRatio="xMidYMid meet">

<g transform="translate(0.000000,500.000000) scale(0.100000,-0.100000)"
fill="#000000" stroke="none">
<path d="M2480 3933 c0 -21 -7 -63 -15 -93 -34 -125 -15 -160 87 -160 51 0 59
3 75 26 14 22 15 34 5 82 -6 32 -14 85 -18 120 l-7 62 -63 0 -64 0 0 -37z m89
-7 c19 -22 25 -146 9 -176 -18 -33 -53 -38 -69 -9 -14 27 -8 144 10 177 13 25
33 28 50 8z"/>
<path d="M2185 3939 c-91 -20 -86 -18 -75 -40 15 -27 50 -186 50 -228 0 -32 1
-33 32 -27 41 8 43 11 24 38 -20 28 -21 84 -2 91 18 7 39 -17 59 -65 14 -32
21 -38 46 -38 17 0 31 4 31 10 0 5 -21 37 -46 70 -43 57 -45 62 -30 79 20 22
20 39 1 85 -16 38 -22 40 -90 25z m51 -54 c6 -24 -27 -85 -46 -85 -10 0 -20
25 -20 51 0 55 54 83 66 34z"/>
<path d="M2806 3884 c-8 -68 -42 -172 -64 -197 -14 -16 -14 -19 -2 -27 8 -6
24 -10 35 -10 18 0 20 5 17 35 -4 36 25 162 40 171 4 3 8 -38 8 -90 0 -52 4
-106 9 -119 10 -26 50 -43 55 -24 34 141 50 198 63 224 16 35 11 53 -15 53
-13 0 -18 -9 -18 -38 -1 -21 -9 -65 -19 -97 -14 -48 -19 -56 -25 -40 -5 11 -6
52 -3 92 5 67 4 73 -20 97 -40 40 -53 34 -61 -30z"/>
<path d="M1862 3828 c-78 -32 -88 -43 -78 -83 7 -29 26 -34 26 -6 0 34 24 43
47 18 28 -30 72 -119 81 -164 9 -43 27 -51 60 -25 l23 18 -34 44 c-47 62 -92
169 -78 183 8 8 18 7 36 -3 34 -18 41 -7 13 24 l-23 25 -73 -31z"/>
<path d="M3125 3798 c-8 -36 -67 -158 -96 -200 -19 -26 -19 -27 3 -42 28 -20
38 -20 38 -2 0 20 49 124 87 184 18 29 33 56 33 61 0 6 -43 31 -55 31 -2 0 -7
-15 -10 -32z"/>
<path d="M3274 3622 c-81 -87 -98 -114 -89 -142 6 -20 67 -72 97 -83 20 -7 44
18 53 56 8 30 -5 36 -25 12 -21 -26 -54 -15 -58 19 -5 42 15 80 64 126 46 43
51 45 73 31 19 -12 6 -45 -14 -37 -24 9 -32 -24 -10 -40 31 -23 50 -16 68 24
l17 37 -39 38 c-22 20 -46 37 -53 36 -7 0 -45 -35 -84 -77z"/>
<path d="M1558 3634 c-23 -20 -45 -38 -47 -40 -2 -2 29 -38 69 -81 40 -43 80
-93 88 -110 9 -18 18 -33 21 -33 11 0 104 75 115 92 9 15 5 24 -22 50 -30 30
-33 31 -49 16 -15 -16 -15 -18 7 -36 21 -17 21 -19 5 -35 -24 -24 -40 -21 -69
14 -33 39 -33 62 1 84 25 17 26 18 8 31 -27 20 -33 18 -50 -16 -17 -34 -42
-31 -51 5 -9 36 12 65 48 65 26 0 29 2 18 15 -20 24 -45 18 -92 -21z"/>
<path d="M3556 3435 c-27 -19 -58 -38 -70 -41 -11 -4 -38 -18 -58 -32 -29 -18
-38 -31 -38 -52 0 -25 45 -94 73 -112 26 -17 58 -7 89 28 18 20 56 62 85 93
l52 57 -35 44 c-20 25 -39 46 -42 48 -4 1 -29 -14 -56 -33z m74 -49 c0 -26
-109 -136 -135 -136 -45 0 -59 36 -30 77 23 33 105 83 137 83 23 0 28 -4 28
-24z"/>
<path d="M1311 3379 c-13 -17 -19 -34 -15 -38 5 -4 34 -23 64 -43 30 -21 77
-58 104 -83 27 -25 52 -45 56 -45 7 0 79 95 86 115 15 37 -106 84 -141 55 -22
-18 -7 -32 25 -25 16 4 38 1 50 -5 28 -15 23 -54 -7 -58 -49 -7 -183 91 -183
134 0 32 -12 30 -39 -7z"/>
<path d="M2435 3294 c-135 -22 -314 -102 -407 -182 -123 -107 -213 -250 -244
-390 -31 -139 -8 -337 58 -498 l21 -52 -28 -56 c-23 -46 -27 -66 -23 -110 8
-92 63 -146 170 -166 120 -23 258 -114 258 -170 0 -32 40 -70 72 -70 10 0 31
12 45 26 26 26 26 26 42 6 9 -11 26 -23 37 -26 28 -8 72 12 80 36 5 17 8 16
34 -12 35 -38 63 -38 100 -1 26 25 30 27 35 11 6 -18 45 -40 71 -40 23 0 64
47 64 73 0 53 124 134 257 167 100 25 143 62 163 138 12 48 1 105 -30 159 -18
31 -18 32 6 92 48 120 66 208 67 341 1 113 -2 133 -28 209 -98 287 -393 503
-703 516 -48 2 -100 1 -117 -1z m-6 -758 c6 -7 9 -21 5 -30 -10 -25 -22 -19
-16 9 10 57 -61 11 -74 -48 -5 -23 -1 -35 19 -54 21 -21 28 -23 46 -14 11 7
21 18 21 25 0 8 7 20 17 27 15 13 15 12 4 -9 -16 -31 -4 -48 19 -27 13 12 19
13 22 4 6 -18 28 -2 28 20 0 13 8 18 31 19 23 1 29 -3 25 -14 -3 -9 -6 -25 -6
-35 0 -11 -5 -17 -10 -14 -6 3 -7 18 -4 32 8 32 -13 23 -26 -11 -7 -19 -15
-22 -56 -20 -71 4 -84 -6 -71 -55 15 -55 -5 -116 -51 -160 -48 -45 -147 -91
-196 -91 -116 0 -205 112 -176 220 27 99 134 157 272 148 65 -5 69 -4 74 18 7
26 58 74 79 74 7 0 18 -6 24 -14z m240 -96 c4 0 13 6 20 13 11 10 11 8 2 -10
-16 -31 -14 -35 9 -23 11 6 20 16 20 23 0 8 26 13 80 15 89 4 170 -15 214 -49
56 -44 81 -137 55 -206 -22 -60 -99 -113 -163 -113 -83 0 -218 81 -246 149
-12 29 -10 87 5 159 8 37 -3 42 -30 12 -10 -11 -22 -17 -26 -14 -12 7 -11 51
1 59 7 4 8 -3 4 -20 -5 -21 -4 -26 7 -23 9 3 13 16 11 34 -2 22 0 26 8 14 8
-13 10 -12 11 5 2 17 2 17 6 -2 2 -13 8 -23 12 -23z m-76 -370 c28 -23 77
-136 77 -180 0 -64 -80 -94 -122 -47 l-21 23 -23 -23 c-13 -13 -35 -23 -49
-23 -31 0 -75 41 -75 69 0 35 52 145 82 174 35 34 93 37 131 7z"/>
<path d="M3745 3171 c-66 -27 -68 -30 -51 -57 22 -33 20 -67 -7 -92 -27 -26
-59 -28 -78 -6 -16 20 -1 48 30 52 25 4 27 15 5 32 -23 20 -88 1 -92 -27 -4
-29 43 -120 67 -128 60 -19 121 39 121 115 0 69 44 108 69 61 8 -14 7 -22 -4
-31 -31 -26 -11 -59 25 -40 26 14 26 50 0 100 -23 44 -27 45 -85 21z"/>
<path d="M1183 3168 c-14 -23 -53 -110 -53 -119 0 -5 9 -9 19 -9 30 0 181 -67
208 -92 14 -13 27 -18 33 -12 18 18 68 127 64 139 -3 6 -21 17 -41 24 -33 12
-38 12 -50 -5 -12 -17 -12 -19 4 -23 51 -10 47 -61 -5 -61 -56 0 -93 55 -60
88 17 17 -4 36 -31 27 -15 -4 -21 -15 -21 -35 0 -36 -11 -43 -38 -24 -29 20
-28 58 3 82 13 11 21 22 18 26 -11 10 -41 7 -50 -6z"/>
<path d="M3886 2155 c-13 -51 -33 -74 -73 -80 -57 -10 -92 -25 -108 -49 -26
-36 -16 -48 13 -16 20 22 41 33 81 40 30 6 60 15 67 21 17 14 37 74 32 96 -3
13 -6 9 -12 -12z"/>
<path d="M1195 2139 c10 -49 42 -77 100 -88 36 -7 57 -18 77 -40 28 -31 37
-26 18 10 -13 23 -53 44 -103 53 -40 7 -77 39 -77 67 0 10 -5 21 -11 25 -8 4
-9 -4 -4 -27z"/>
<path d="M1325 1994 c13 -19 27 -56 30 -82 11 -83 14 -89 75 -142 34 -29 60
-60 60 -71 0 -32 -28 -21 -40 15 -6 18 -20 42 -32 52 l-22 19 17 -25 c11 -15
17 -44 17 -77 0 -62 15 -81 86 -115 25 -11 54 -34 64 -50 l18 -29 31 54 c45
79 41 98 -35 143 -16 10 -16 12 0 56 10 26 16 50 13 55 -3 5 -29 24 -58 42
l-52 32 32 -36 c35 -40 36 -58 3 -63 -17 -3 -23 5 -34 44 -8 29 -22 52 -38 62
-25 16 -25 16 -7 -4 27 -32 22 -54 -13 -54 -35 0 -50 27 -50 86 0 45 -23 100
-48 113 -37 20 -42 12 -17 -25z"/>
<path d="M3747 2019 c-23 -13 -47 -68 -47 -107 0 -65 -30 -109 -65 -96 -20 8
-19 33 3 58 17 20 17 20 -8 4 -14 -8 -32 -35 -40 -59 -11 -32 -22 -45 -38 -47
-31 -5 -29 25 6 61 l27 29 -41 -20 c-64 -32 -71 -46 -53 -97 18 -48 15 -59
-19 -69 -12 -4 -30 -19 -39 -32 -15 -23 -14 -28 18 -90 l33 -65 13 25 c8 15
39 39 71 55 76 38 86 52 87 116 0 38 6 59 19 74 11 12 16 21 12 21 -4 0 4 14
18 31 19 22 26 42 26 72 0 49 30 120 57 136 17 10 17 10 -2 10 -11 0 -28 -4
-38 -10z m-85 -261 c-11 -13 -25 -35 -31 -50 -11 -29 -25 -36 -36 -18 -9 14 6
36 45 65 42 31 50 32 22 3z"/>
<path d="M1393 1704 c-3 -67 15 -107 58 -130 17 -8 33 -14 35 -11 2 2 -8 10
-22 17 -37 20 -56 62 -48 107 3 24 1 44 -8 55 -11 16 -13 11 -15 -38z"/>
<path d="M3682 1748 c-7 -7 -12 -37 -12 -68 0 -58 -11 -77 -65 -109 -18 -11
-18 -11 5 -5 52 13 74 48 80 124 3 39 5 70 5 70 -1 0 -6 -5 -13 -12z"/>
<path d="M2028 1203 c-25 -62 -32 -90 -24 -95 19 -13 24 -9 36 27 16 48 30 44
30 -10 0 -34 5 -47 20 -55 19 -10 20 -8 20 40 0 27 4 50 9 50 19 0 41 32 41
61 0 23 -7 32 -40 49 -21 11 -43 20 -48 20 -4 0 -24 -39 -44 -87z m91 23 c14
-17 -9 -39 -33 -30 -18 7 -18 7 -10 28 8 20 28 21 43 2z"/>
<path d="M2917 1264 c-16 -9 -27 -21 -24 -27 32 -82 71 -167 78 -167 17 0 20
22 9 51 -18 43 -5 47 33 11 25 -24 36 -29 50 -21 16 9 14 13 -13 36 -26 21
-30 30 -25 55 15 64 -43 97 -108 62z m73 -39 c0 -22 -37 -38 -44 -19 -10 27
-7 34 19 34 15 0 25 -6 25 -15z"/>
<path d="M2216 1148 c-10 -45 -20 -87 -23 -94 -4 -12 51 -34 85 -34 23 0 8 35
-16 38 -16 3 -22 10 -22 28 0 23 3 25 30 19 26 -6 30 -4 30 14 0 14 -6 21 -18
21 -25 0 -31 7 -25 30 4 15 11 17 39 13 26 -4 34 -2 34 10 0 9 -16 19 -44 26
-25 6 -46 11 -48 11 -2 0 -11 -37 -22 -82z"/>
<path d="M2767 1218 c-40 -11 -45 -31 -10 -36 28 -4 52 -111 28 -125 -17 -9
-20 -37 -4 -37 5 0 30 5 55 11 46 12 59 35 22 41 -17 2 -25 14 -36 58 -12 48
-12 56 2 66 9 6 16 16 16 23 0 13 -21 13 -73 -1z"/>
<path d="M2399 1111 c-17 -47 -34 -92 -37 -98 -2 -8 4 -13 16 -13 11 0 22 9
25 21 8 30 61 23 65 -8 2 -15 10 -23 24 -23 13 0 18 5 15 14 -3 8 -13 52 -22
99 -13 65 -22 86 -35 90 -15 4 -24 -11 -51 -82z m47 -29 c-12 -11 -18 7 -10
30 l8 23 4 -23 c2 -13 1 -26 -2 -30z"/>
<path d="M2595 1188 c-32 -18 -36 -30 -30 -93 9 -82 18 -95 65 -95 44 0 60 18
60 69 0 28 -3 31 -30 31 -20 0 -30 -5 -30 -15 0 -8 7 -15 15 -15 17 0 19 -9 5
-30 -7 -12 -13 -12 -27 -4 -26 16 -31 111 -7 121 10 4 22 0 30 -11 14 -19 34
-14 34 9 0 15 -37 45 -55 45 -5 0 -19 -6 -30 -12z"/>
</g>
</svg>
